<svg xmlns="http://www.w3.org/2000/svg" viewBox="0 0 356.2 356.2" class="undefined">
<style>
  .a{
    fill:#FEE050;
  }
  .b{
    fill:#1E252B;
  }
  .c{
    fill:#AF8400;
  }
  .d{
    fill:#C3C6C8;
  }
  .e{
    fill:#333E48;
  }
</style>
  <circle cx="102.3" cy="197.5" r="102.3" class="a"/>
  <circle cx="37.3" cy="176.3" r="12" class="b"/>
  <path d="M155.2 176.3c0-6.6 5.4-12 12-12 6.6 0 12 5.4 12 12 0 6.6-5.4 12-12 12s-12-5.4-12-12z" class="b"/>
  <path d="M158.8 197.5c0 31.2-25.3 56.5-56.5 56.5-31.2 0-56.5-25.3-56.5-56.5h113z" class="c"/>
  <path d="M269.4 56.4c-48 0-86.8 38.9-86.8 86.8 0 21.6 7.9 41.4 21 56.6-3.9 11.3-11.2 21.1-20.6 28 6 2 12.4 3.2 19.1 3.2 11.4 0 22.1-3.3 31.1-8.9 11 5.1 23.3 7.9 36.3 7.9 48 0 86.8-38.9 86.8-86.8 0-48-38.9-86.8-86.8-86.8z" class="d"/>
  <path d="M300.4 113h-62.1c-2.8 0-5.1-2.3-5.1-5.1s2.3-5.1 5.1-5.1h62.1c2.8 0 5.1 2.3 5.1 5.1s-2.3 5.1-5.1 5.1zm18.8 23.5H219.5c-2.8 0-5.1-2.3-5.1-5.1 0-2.8 2.3-5.1 5.1-5.1h99.8c2.8 0 5.1 2.3 5.1 5.1 0 2.8-2.3 5.1-5.1 5.1zm-9.6 23.5h-80.6c-2.8 0-5.1-2.3-5.1-5.1 0-2.8 2.3-5.1 5.1-5.1h80.6c2.8 0 5.1 2.3 5.1 5.1 0 2.8-2.3 5.1-5.1 5.1zm-9.2 23.5h-62.1c-2.8 0-5.1-2.3-5.1-5.1 0-2.8 2.3-5.1 5.1-5.1h62.1c2.8 0 5.1 2.3 5.1 5.1 0 2.8-2.3 5.1-5.1 5.1z" class="e"/>
</svg>
